<?xml version="1.0" encoding="UTF-8"?>
<tsduck>

  <splice_information_table>
    <splice_null/>
  </splice_information_table>

  <splice_information_table>
    <bandwidth_reservation/>
  </splice_information_table>

  <splice_information_table>
    <time_signal pts_time="123456789"/>
  </splice_information_table>

  <splice_information_table>
    <time_signal/>
  </splice_information_table>

  <splice_information_table>
    <private_command identifier="0xdeadbeef"/>
  </splice_information_table>

  <splice_information_table>
    <private_command identifier="0x12345678">
      98 76 54 32 10
    </private_command>
  </splice_information_table>

  <splice_information_table protocol_version="4" pts_adjustment="456789" tier="0x147">
    <splice_null/>
  </splice_information_table>

  <splice_information_table>
    <splice_insert splice_event_id="0x12345678" splice_event_cancel="true"/>
  </splice_information_table>

  <splice_information_table>
    <splice_insert
        splice_event_id="0x12345678"
        out_of_network="true"
        splice_immediate="true"
        unique_program_id="0x6789"/>
  </splice_information_table>

  <splice_information_table>
    <splice_insert
        splice_event_id="0x12345678"
        out_of_network="true"
        pts_time="789456"
        unique_program_id="0x6754"
        avail_num="1"
        avails_expected="3"/>
  </splice_information_table>

  <splice_information_table>
    <splice_insert
        splice_event_id="0x12345678"
        out_of_network="true"
        unique_program_id="0x6754"
        avail_num="1"
        avails_expected="3">
      <break_duration auto_return="false" duration="456"/>
      <component component_tag="1" pts_time="123789"/>
      <component component_tag="2" pts_time="123751"/>
      <component component_tag="3" pts_time="123801"/>
    </splice_insert>
  </splice_information_table>

  <splice_information_table>
    <splice_schedule/>
  </splice_information_table>

  <splice_information_table>
    <splice_schedule>
      <splice_event
          splice_event_id="0x78912305"
          splice_event_cancel="true"/>
      <splice_event
          splice_event_id="0x78914861"
          out_of_network="true"
          utc_splice_time="1525032898"
          unique_program_id="0x4562">
        <break_duration auto_return="true" duration="64565"/>
      </splice_event>
      <splice_event
          splice_event_id="0x78914861"
          out_of_network="false"
          unique_program_id="0x4562">
        <component component_tag="1" utc_splice_time="1525032891"/>
        <component component_tag="2" utc_splice_time="1525032910"/>
      </splice_event>
    </splice_schedule>
  </splice_information_table>

</tsduck>
